<svg xmlns="http://www.w3.org/2000/svg" viewBox="0 0 64 64" width="64" height="64" role="img" aria-label="Site emblem: a shield containing a circuit motif">
  <circle cx="32" cy="32" r="31" fill="#ffffff" stroke="#a2a9b1" stroke-width="1.5"/>
  <path d="M32 8 L52 15 V30 C52 43 43.5 51.5 32 56 C20.5 51.5 12 43 12 30 V15 Z" fill="#0645ad"/>
  <path d="M32 12 L48 17.5 V30 C48 41 41 48 32 51.8 C23 48 16 41 16 30 V17.5 Z" fill="#eaf3ff"/>
  <g stroke="#0645ad" stroke-width="2" stroke-linecap="round" fill="none">
    <path d="M32 20 V30"/>
    <path d="M32 30 L24 36"/>
    <path d="M32 30 L40 36"/>
    <path d="M24 36 V42"/>
    <path d="M40 36 V42"/>
  </g>
  <circle cx="32" cy="20" r="3" fill="#0645ad"/>
  <circle cx="24" cy="36" r="3" fill="#0645ad"/>
  <circle cx="40" cy="36" r="3" fill="#0645ad"/>
  <circle cx="24" cy="42" r="3" fill="#0645ad"/>
  <circle cx="40" cy="42" r="3" fill="#0645ad"/>
</svg>
